<svg xmlns="http://www.w3.org/2000/svg" viewBox="0 0 1440 320"><path fill="#2b00d4" fill-opacity="1" d="M0,192L30,181.3C60,171,120,149,180,117.3C240,85,300,43,360,32C420,21,480,43,540,53.3C600,64,660,64,720,69.3C780,75,840,85,900,85.3C960,85,1020,75,1080,74.7C1140,75,1200,85,1260,112C1320,139,1380,181,1410,202.7L1440,224L1440,0L1410,0C1380,0,1320,0,1260,0C1200,0,1140,0,1080,0C1020,0,960,0,900,0C840,0,780,0,720,0C660,0,600,0,540,0C480,0,420,0,360,0C300,0,240,0,180,0C120,0,60,0,30,0L0,0Z"></path></svg>