<svg xmlns="http://www.w3.org/2000/svg" viewBox="0 0 1440 320">
  <path fill="#7254ec" fill-opacity="1" d="M0,160L10,165.3C20,171,40,181,60,202.7C80,224,100,256,120,272C140,288,160,288,180,250.7C200,213,220,139,240,122.7C260,107,280,149,300,138.7C320,128,340,64,360,42.7C380,21,400,43,420,69.3C440,96,460,128,480,138.7C500,149,520,139,540,154.7C560,171,580,213,600,240C620,267,640,277,660,282.7C680,288,700,288,720,256C740,224,760,160,780,117.3C800,75,820,53,840,85.3C860,117,880,203,900,197.3C920,192,940,96,960,80C980,64,1000,128,1020,144C1040,160,1060,128,1080,106.7C1100,85,1120,75,1140,64C1160,53,1180,43,1200,48C1220,53,1240,75,1260,112C1280,149,1300,203,1320,229.3C1340,256,1360,256,1380,218.7C1400,181,1420,107,1430,69.3L1440,32L1440,320L1430,320C1420,320,1400,320,1380,320C1360,320,1340,320,1320,320C1300,320,1280,320,1260,320C1240,320,1220,320,1200,320C1180,320,1160,320,1140,320C1120,320,1100,320,1080,320C1060,320,1040,320,1020,320C1000,320,980,320,960,320C940,320,920,320,900,320C880,320,860,320,840,320C820,320,800,320,780,320C760,320,740,320,720,320C700,320,680,320,660,320C640,320,620,320,600,320C580,320,560,320,540,320C520,320,500,320,480,320C460,320,440,320,420,320C400,320,380,320,360,320C340,320,320,320,300,320C280,320,260,320,240,320C220,320,200,320,180,320C160,320,140,320,120,320C100,320,80,320,60,320C40,320,20,320,10,320L0,320Z"></path>
</svg>